<?xml version="1.0" encoding="UTF-8" standalone="no"?> <svg width="64" height="64" viewBox="0 0 64 64" fill="none" xmlns="http://www.w3.org/2000/svg">
<path d="M30 52H22V54H30V52Z" fill="black"/>
<path d="M30 22H22V24H30V22Z" fill="black"/>
<path d="M29.057 34L26 32.166L22.943 34L26 35.834L29.057 34Z" fill="black"/>
<path d="M50 13C50 12.2044 49.6839 11.4413 49.1213 10.8787C48.5587 10.3161 47.7956 10 47 10H17C16.2044 10 15.4413 10.3161 14.8787 10.8787C14.3161 11.4413 14 12.2044 14 13V14H37C37.2652 14.0001 37.5195 14.1055 37.707 14.293L45.707 22.293C45.8946 22.4805 45.9999 22.7348 46 23V54H47C47.7956 54 48.5587 53.6839 49.1213 53.1213C49.6839 52.5587 50 51.7956 50 51V13Z" fill="black"/>
<path d="M56 7C56 6.20435 55.6839 5.44129 55.1213 4.87868C54.5587 4.31607 53.7956 4 53 4H23C22.2044 4 21.4413 4.31607 20.8787 4.87868C20.3161 5.44129 20 6.20435 20 7V8H47C48.3256 8.00159 49.5964 8.52888 50.5338 9.46622C51.4711 10.4036 51.9984 11.6744 52 13V48H53C53.7956 48 54.5587 47.6839 55.1213 47.1213C55.6839 46.5587 56 45.7956 56 45V7Z" fill="black"/>
<path d="M18 41H14V43H18V41Z" fill="black"/>
<path d="M42.586 22L38 17.414V21C38 21.2652 38.1054 21.5196 38.2929 21.7071C38.4804 21.8946 38.7348 22 39 22H42.586Z" fill="black"/>
<path d="M44 24H39C38.2044 24 37.4413 23.6839 36.8787 23.1213C36.3161 22.5587 36 21.7956 36 21V16H11C10.2044 16 9.44129 16.3161 8.87868 16.8787C8.31607 17.4413 8 18.2044 8 19V57C8 57.7956 8.31607 58.5587 8.87868 59.1213C9.44129 59.6839 10.2044 60 11 60H41C41.7956 60 42.5587 59.6839 43.1213 59.1213C43.6839 58.5587 44 57.7956 44 57V24ZM40 44C40 44.2652 39.8946 44.5196 39.7071 44.7071C39.5196 44.8946 39.2652 45 39 45H37V53C37 53.2652 36.8946 53.5196 36.7071 53.7071C36.5196 53.8946 36.2652 54 36 54H32V55C32 55.2652 31.8946 55.5196 31.7071 55.7071C31.5196 55.8946 31.2652 56 31 56H21C20.7348 56 20.4804 55.8946 20.2929 55.7071C20.1054 55.5196 20 55.2652 20 55V54H16C15.7348 54 15.4804 53.8946 15.2929 53.7071C15.1054 53.5196 15 53.2652 15 53V45H13C12.7348 45 12.4804 44.8946 12.2929 44.7071C12.1054 44.5196 12 44.2652 12 44V40C12 39.7348 12.1054 39.4804 12.2929 39.2929C12.4804 39.1054 12.7348 39 13 39H15V34C15 33.7348 15.1054 33.4804 15.2929 33.2929C15.4804 33.1054 15.7348 33 16 33H20.723L25 30.434V26H21C20.7348 26 20.4804 25.8946 20.2929 25.7071C20.1054 25.5196 20 25.2652 20 25V21C20 20.7348 20.1054 20.4804 20.2929 20.2929C20.4804 20.1054 20.7348 20 21 20H31C31.2652 20 31.5196 20.1054 31.7071 20.2929C31.8946 20.4804 32 20.7348 32 21V25C32 25.2652 31.8946 25.5196 31.7071 25.7071C31.5196 25.8946 31.2652 26 31 26H27V30.434L31.277 33H36C36.2652 33 36.5196 33.1054 36.7071 33.2929C36.8946 33.4804 37 33.7348 37 34V39H39C39.2652 39 39.5196 39.1054 39.7071 39.2929C39.8946 39.4804 40 39.7348 40 40V44Z" fill="black"/>
<path d="M38 41H34V43H38V41Z" fill="black"/>
<path d="M32 44V40C32 39.7348 32.1054 39.4804 32.2929 39.2929C32.4804 39.1054 32.7348 39 33 39H35V35H31.277L26.515 37.857C26.3595 37.9504 26.1814 37.9998 26 37.9998C25.8186 37.9998 25.6405 37.9504 25.485 37.857L20.723 35H17V39H19C19.2652 39 19.5196 39.1054 19.7071 39.2929C19.8946 39.4804 20 39.7348 20 40V44C20 44.2652 19.8946 44.5196 19.7071 44.7071C19.5196 44.8946 19.2652 45 19 45H17V52H20V51C20 50.7348 20.1054 50.4804 20.2929 50.2929C20.4804 50.1054 20.7348 50 21 50H31C31.2652 50 31.5196 50.1054 31.7071 50.2929C31.8946 50.4804 32 50.7348 32 51V52H35V45H33C32.7348 45 32.4804 44.8946 32.2929 44.7071C32.1054 44.5196 32 44.2652 32 44V44Z" fill="black"/>
</svg>
